<svg width="29" height="29" viewBox="0 0 29 29" fill="none" xmlns="http://www.w3.org/2000/svg">
<path d="M20.0463 9.15925L12.0834 17.1222L7.7455 12.7963L6.04175 14.5001L12.0834 20.5417L21.7501 10.8751L20.0463 9.15925ZM14.5001 2.41675C7.83008 2.41675 2.41675 7.83008 2.41675 14.5001C2.41675 21.1701 7.83008 26.5834 14.5001 26.5834C21.1701 26.5834 26.5834 21.1701 26.5834 14.5001C26.5834 7.83008 21.1701 2.41675 14.5001 2.41675ZM14.5001 24.1667C9.15925 24.1667 4.83341 19.8409 4.83341 14.5001C4.83341 9.15925 9.15925 4.83341 14.5001 4.83341C19.8409 4.83341 24.1667 9.15925 24.1667 14.5001C24.1667 19.8409 19.8409 24.1667 14.5001 24.1667Z" fill="#1C6DD0"/>
</svg>
