<svg width="30" height="31" viewBox="0 0 30 31" fill="none" xmlns="http://www.w3.org/2000/svg">
<path d="M26.2125 9.58743C26.3284 9.47179 26.4203 9.33443 26.483 9.18321C26.5458 9.03199 26.5781 8.86989 26.5781 8.70618C26.5781 8.54247 26.5458 8.38037 26.483 8.22915C26.4203 8.07793 26.3284 7.94057 26.2125 7.82493L22.675 4.28743C22.5594 4.17155 22.422 4.07962 22.2708 4.01689C22.1196 3.95416 21.9575 3.92188 21.7937 3.92188C21.63 3.92188 21.4679 3.95416 21.3167 4.01689C21.1655 4.07962 21.0281 4.17155 20.9125 4.28743L15.3 9.89993L10.4375 5.03743C9.4625 4.06243 7.875 4.06243 6.9 5.03743L4.525 7.41243C3.55 8.38743 3.55 9.97493 4.525 10.9499L9.3875 15.8124L3.75 21.4499V26.7499H9.05L14.7 21.0999L19.5625 25.9624C20.75 27.1499 22.35 26.7124 23.1 25.9624L25.475 23.5874C26.45 22.6124 26.45 21.0249 25.475 20.0499L20.6125 15.1874L26.2125 9.58743ZM6.3 9.17493L8.6625 6.79993L10.25 8.38743L8.775 9.87493L10.5375 11.6374L12.025 10.1499L13.525 11.6499L11.15 14.0249L6.3 9.17493ZM20.3375 18.4749L18.85 19.9624L20.6125 21.7249L22.1 20.2374L23.6875 21.8249L21.3125 24.1999L16.45 19.3374L18.825 16.9624L20.3375 18.4749ZM8.0125 24.2499H6.25V22.4874L18.2625 10.4749L19.8875 12.0999L20.025 12.2374L8.0125 24.2499ZM20.025 8.69993L21.7875 6.93743L23.55 8.69993L21.7875 10.4624L20.025 8.69993Z" fill="#1C6DD0"/>
</svg>
