<svg width="30" height="31" viewBox="0 0 30 31" fill="none" xmlns="http://www.w3.org/2000/svg">
<path d="M15 2.375C7.75195 2.375 1.875 8.25195 1.875 15.5C1.875 22.748 7.75195 28.625 15 28.625C22.248 28.625 28.125 22.748 28.125 15.5C28.125 8.25195 22.248 2.375 15 2.375ZM15 26.3984C8.98242 26.3984 4.10156 21.5176 4.10156 15.5C4.10156 9.48242 8.98242 4.60156 15 4.60156C21.0176 4.60156 25.8984 9.48242 25.8984 15.5C25.8984 21.5176 21.0176 26.3984 15 26.3984ZM16.3975 14.8203L15.6533 14.6475V10.7129C16.7666 10.8652 17.4551 11.5625 17.5723 12.418C17.5869 12.5352 17.6865 12.6201 17.8037 12.6201H19.1191C19.2568 12.6201 19.3652 12.5 19.3535 12.3623C19.1748 10.5371 17.6719 9.36523 15.665 9.16309V8.20508C15.665 8.07617 15.5596 7.9707 15.4307 7.9707H14.6074C14.4785 7.9707 14.373 8.07617 14.373 8.20508V9.17188C12.2988 9.37402 10.6758 10.5195 10.6758 12.6582C10.6758 14.6387 12.1348 15.5938 13.667 15.96L14.3906 16.1445V20.3252C13.0957 20.1523 12.3691 19.4609 12.2197 18.5293C12.2021 18.418 12.1025 18.3359 11.9883 18.3359H10.6348C10.4971 18.3359 10.3887 18.4531 10.4004 18.5908C10.5322 20.2021 11.7539 21.6846 14.3613 21.875V22.7949C14.3613 22.9238 14.4668 23.0293 14.5957 23.0293H15.4277C15.5566 23.0293 15.6621 22.9238 15.6621 22.792L15.6563 21.8633C17.9502 21.6611 19.5908 20.4336 19.5908 18.2305C19.5879 16.1973 18.2959 15.2891 16.3975 14.8203ZM14.3877 14.3457C14.2236 14.2988 14.0859 14.2549 13.9482 14.1992C12.958 13.8418 12.498 13.2646 12.498 12.5205C12.498 11.457 13.3037 10.8506 14.3877 10.7129V14.3457ZM15.6533 20.334V16.417C15.7441 16.4434 15.8262 16.4639 15.9111 16.4814C17.2969 16.9033 17.7627 17.4893 17.7627 18.3887C17.7627 19.5342 16.9014 20.2227 15.6533 20.334Z" fill="#1C6DD0"/>
</svg>
