<svg width="30" height="31" viewBox="0 0 30 31" fill="none" xmlns="http://www.w3.org/2000/svg">
<path d="M13.875 5.813C12.0718 6.01746 10.3616 6.7214 8.937 7.8455L10.17 9.08C10.3687 9.29326 10.4769 9.57533 10.4718 9.86678C10.4666 10.1582 10.3486 10.4363 10.1424 10.6424C9.93631 10.8486 9.65824 10.9666 9.36678 10.9718C9.07533 10.9769 8.79326 10.8687 8.58 10.67L7.341 9.4325C6.28797 10.7533 5.60282 12.3291 5.355 14H7.875C8.17337 14 8.45952 14.1185 8.6705 14.3295C8.88147 14.5405 9 14.8266 9 15.125C9 15.4234 8.88147 15.7095 8.6705 15.9205C8.45952 16.1315 8.17337 16.25 7.875 16.25H5.2875C5.52104 18.6573 6.6213 20.8978 8.3835 22.5545C8.59604 22.7598 8.71927 23.0405 8.72657 23.3359C8.73387 23.6313 8.62465 23.9177 8.4225 24.1332C8.22036 24.3488 7.94153 24.4761 7.64626 24.4878C7.35099 24.4994 7.06299 24.3944 6.8445 24.1955C4.5345 22.031 3 18.839 3 15.4145C3 8.8265 8.3805 3.5 15 3.5C21.6195 3.5 27 8.825 27 15.4145C26.997 17.0586 26.6596 18.6849 26.0082 20.1945C25.3568 21.7041 24.4051 23.0654 23.211 24.1955C22.9925 24.3944 22.7045 24.4994 22.4092 24.4878C22.114 24.4761 21.8351 24.3488 21.633 24.1332C21.4309 23.9177 21.3216 23.6313 21.3289 23.3359C21.3362 23.0405 21.4595 22.7598 21.672 22.5545C23.422 20.8951 24.504 18.6525 24.714 16.25H22.125C21.8266 16.25 21.5405 16.1315 21.3295 15.9205C21.1185 15.7095 21 15.4234 21 15.125C21 14.8266 21.1185 14.5405 21.3295 14.3295C21.5405 14.1185 21.8266 14 22.125 14H24.645C24.009 9.701 20.5155 6.3125 16.125 5.813V7.625C16.125 7.92337 16.0065 8.20952 15.7955 8.4205C15.5845 8.63147 15.2984 8.75 15 8.75C14.7016 8.75 14.4155 8.63147 14.2045 8.4205C13.9935 8.20952 13.875 7.92337 13.875 7.625V5.813ZM20.1735 9.2105C20.3098 9.10224 20.4795 9.04477 20.6536 9.04793C20.8276 9.05109 20.9951 9.11469 21.1274 9.22782C21.2597 9.34096 21.3485 9.49658 21.3786 9.66803C21.4088 9.83947 21.3783 10.016 21.2925 10.1675L21.1275 10.4615C20.5243 11.5267 19.9173 12.5897 19.3065 13.6505C18.8182 14.4994 18.3232 15.3444 17.8215 16.1855C17.6335 16.5019 17.4415 16.8159 17.2455 17.1275C17.0955 17.363 16.9485 17.5865 16.8405 17.7125C16.453 18.1664 15.9011 18.4478 15.3061 18.4948C14.7112 18.5418 14.1219 18.3505 13.668 17.963C13.2141 17.5755 12.9327 17.0236 12.8857 16.4286C12.8387 15.8337 13.03 15.2444 13.4175 14.7905C13.5255 14.6645 13.722 14.483 13.932 14.2985C14.157 14.099 14.4465 13.8545 14.772 13.58C15.426 13.034 16.245 12.365 17.043 11.72C17.9948 10.95 18.9498 10.184 19.908 9.422L20.1735 9.212V9.2105Z" fill="#1C6DD0"/>
</svg>
